<svg width="103" height="202" viewBox="0 0 103 202" fill="none" xmlns="http://www.w3.org/2000/svg">
<path d="M43.5938 3.42994C43.2789 1.24335 41.2511 -0.274004 39.0645 0.0408287L3.43201 5.17133C1.24542 5.48616 -0.271941 7.51397 0.0428915 9.70056C0.357724 11.8871 2.38553 13.4045 4.57212 13.0897L36.2455 8.52923L40.8059 40.2026C41.1208 42.3892 43.1486 43.9065 45.3352 43.5917C47.5218 43.2769 49.0391 41.2491 48.7243 39.0625L43.5938 3.42994ZM97.8028 201.412C99.9635 201.872 102.088 200.493 102.548 198.332C103.007 196.172 101.628 194.047 99.4676 193.588L98.6352 197.5L97.8028 201.412ZM39.6346 4L36.432 1.60353C9.02502 38.2303 -0.0745821 82.8455 9.95284 121.077C20.023 159.472 49.3198 191.097 97.8028 201.412L98.6352 197.5L99.4676 193.588C53.9512 183.903 26.9969 154.528 17.6911 119.048C8.34262 83.4045 16.7424 41.2697 42.8372 6.39647L39.6346 4Z" fill="#3DB98B"/>
</svg>
