<svg width="94" height="67" viewBox="0 0 94 67" fill="none" xmlns="http://www.w3.org/2000/svg">
<path d="M84.211 66.7711C85.2374 67.1791 86.4003 66.6778 86.8083 65.6513L93.4574 48.9244C93.8654 47.898 93.3641 46.7351 92.3377 46.3271C91.3112 45.9191 90.1483 46.4204 89.7403 47.4468L83.83 62.3152L68.9616 56.4049C67.9352 55.9969 66.7723 56.4982 66.3643 57.5246C65.9563 58.5511 66.4576 59.714 67.4841 60.122L84.211 66.7711ZM2.00027 0.000550626C0.895699 0.000592851 0.00030728 0.89606 0.000350459 2.00063C0.000393637 3.1052 0.895856 4.00059 2.00043 4.00055L2.00035 2.00055L2.00027 0.000550626ZM84.9498 64.9125L86.7864 64.1207C74.1822 34.8848 49.2258 -0.00129384 2.00027 0.000550626L2.00035 2.00055L2.00043 4.00055C46.7749 3.9988 70.7149 36.9458 83.1132 65.7043L84.9498 64.9125Z" fill="#3DB98B"/>
</svg>
