<svg width="429" height="283" viewBox="0 0 429 283" fill="none" xmlns="http://www.w3.org/2000/svg">
<g clip-path="url(#clip0_1646_823)">
<path d="M10.7891 159.837C21.2997 146.322 56.0125 124.504 110.778 145.356C179.236 171.422 172.651 146.161 167.204 133.357C161.395 119.703 163.283 103.981 161.395 93.2239C159.508 82.4665 155.16 72.9505 150.608 65.0894C143.14 52.1902 161.564 52.4201 168.449 59.7126C175.087 66.7443 180.895 80.8116 189.608 102.741C201.935 133.765 216.576 120.945 203.715 106.051C190.853 91.1569 179.236 91.9835 179.651 117.636C180.066 143.288 195.002 166.871 214.502 165.63C234.002 164.389 247.761 149.211 259.725 130.462C271.342 112.256 292.087 91.9827 297.066 87.0178C308.683 75.4329 301.629 65.0894 290.012 73.7779C284.06 78.2297 271.544 91.7825 264.289 97.3614C257.294 102.74 258.7 94.6224 262.215 89.5003C267.608 81.6391 289.422 51.5806 292.502 45.6434C297.651 35.7136 288.502 26.6113 280.47 35.7136C271.342 46.0572 261.713 60.2014 246.864 79.1566C240.225 87.6301 239.273 80.3876 246.864 66.3306C255.576 50.1946 261.365 39.2524 268.023 24.1288C275.491 7.16535 261.8 0.545474 252.672 15.0265C243.963 28.8441 237.736 44.4022 224.459 67.1581C220.073 74.6766 218.132 71.2955 219.895 64.2619C221.14 59.297 227.981 35.0665 232.342 18.756C235.661 6.34291 226.119 -10.6208 214.087 18.7557C202.055 48.1323 206.619 52.2624 189.608 84.9491" stroke="black" stroke-width="5" stroke-linecap="round"/>
<path d="M257.449 260.717C252.185 260.717 247.664 259.608 243.883 257.39C240.103 255.173 237.212 251.809 235.21 247.3C233.209 242.717 232.208 236.951 232.208 230.002C232.208 222.98 233.246 217.214 235.322 212.705C237.472 208.196 240.436 204.832 244.217 202.614C247.997 200.397 252.408 199.288 257.449 199.288C263.082 199.288 268.123 200.545 272.571 203.058C277.092 205.571 280.65 209.119 283.245 213.703C285.914 218.286 287.248 223.719 287.248 230.002C287.248 236.212 285.914 241.608 283.245 246.191C280.65 250.775 277.092 254.359 272.571 256.947C268.123 259.46 263.082 260.717 257.449 260.717ZM222.09 259.83V177.555H239.436V212.261L238.324 229.891L238.657 247.633V259.83H222.09ZM254.447 246.524C257.338 246.524 259.895 245.859 262.119 244.528C264.416 243.197 266.233 241.312 267.567 238.873C268.975 236.36 269.68 233.403 269.68 230.002C269.68 226.528 268.975 223.571 267.567 221.132C266.233 218.692 264.416 216.807 262.119 215.477C259.895 214.146 257.338 213.481 254.447 213.481C251.556 213.481 248.961 214.146 246.663 215.477C244.365 216.807 242.549 218.692 241.215 221.132C239.88 223.571 239.213 226.528 239.213 230.002C239.213 233.403 239.88 236.36 241.215 238.873C242.549 241.312 244.365 243.197 246.663 244.528C248.961 245.859 251.556 246.524 254.447 246.524ZM327.325 260.717C320.95 260.717 315.279 259.386 310.313 256.725C305.42 254.064 301.529 250.442 298.638 245.859C295.821 241.202 294.412 235.916 294.412 230.002C294.412 224.015 295.821 218.73 298.638 214.146C301.529 209.489 305.42 205.867 310.313 203.28C315.279 200.618 320.95 199.288 327.325 199.288C333.626 199.288 339.259 200.618 344.226 203.28C349.193 205.867 353.084 209.452 355.901 214.035C358.718 218.619 360.127 223.941 360.127 230.002C360.127 235.916 358.718 241.202 355.901 245.859C353.084 250.442 349.193 254.064 344.226 256.725C339.259 259.386 333.626 260.717 327.325 260.717ZM327.325 246.524C330.216 246.524 332.81 245.859 335.109 244.528C337.406 243.197 339.223 241.312 340.557 238.873C341.891 236.36 342.558 233.403 342.558 230.002C342.558 226.528 341.891 223.571 340.557 221.132C339.223 218.692 337.406 216.807 335.109 215.477C332.81 214.146 330.216 213.481 327.325 213.481C324.434 213.481 321.839 214.146 319.542 215.477C317.243 216.807 315.39 218.692 313.982 221.132C312.648 223.571 311.981 226.528 311.981 230.002C311.981 233.403 312.648 236.36 313.982 238.873C315.39 241.312 317.243 243.197 319.542 244.528C321.839 245.859 324.434 246.524 327.325 246.524ZM362.531 259.83L389.328 224.791L388.994 234.327L363.309 200.175H382.767L399.001 222.462L391.663 222.684L408.453 200.175H426.91L401.114 233.994V224.68L427.8 259.83H408.119L391.107 236.101L398.334 237.099L381.433 259.83H362.531Z" fill="black"/>
<path d="M8.00391 259.83V177.555H25.3498V216.696L21.4581 211.707C23.6078 207.715 26.6841 204.647 30.687 202.503C34.6899 200.359 39.2487 199.288 44.3635 199.288C49.1077 199.288 53.3329 200.248 57.0394 202.171C60.8199 204.018 63.7849 206.901 65.9347 210.82C68.0844 214.663 69.1592 219.617 69.1592 225.678V259.83H51.8134V228.339C51.8134 223.534 50.7385 219.986 48.5888 217.694C46.5133 215.403 43.5481 214.257 39.6935 214.257C36.9508 214.257 34.4675 214.849 32.2437 216.031C30.0939 217.14 28.389 218.877 27.1288 221.243C25.9428 223.608 25.3498 226.639 25.3498 230.335V259.83H8.00391ZM115.005 260.717C108.185 260.717 102.181 259.386 96.992 256.725C91.8771 254.064 87.9116 250.442 85.0945 245.859C82.2775 241.202 80.8691 235.916 80.8691 230.002C80.8691 224.015 82.2404 218.73 84.9833 214.146C87.8004 209.489 91.6174 205.867 96.436 203.28C101.255 200.618 106.703 199.288 112.781 199.288C118.637 199.288 123.9 200.545 128.57 203.058C133.314 205.497 137.058 209.045 139.801 213.703C142.543 218.286 143.915 223.793 143.915 230.224C143.915 230.889 143.877 231.666 143.804 232.553C143.73 233.366 143.655 234.142 143.581 234.881H94.9905V224.791H134.464L127.792 227.785C127.792 224.68 127.162 221.982 125.902 219.69C124.641 217.399 122.9 215.625 120.676 214.368C118.452 213.037 115.857 212.372 112.892 212.372C109.928 212.372 107.295 213.037 104.998 214.368C102.774 215.625 101.032 217.435 99.7717 219.801C98.5113 222.092 97.8815 224.828 97.8815 228.006V230.668C97.8815 233.92 98.586 236.803 99.9941 239.317C101.477 241.756 103.515 243.641 106.11 244.972C108.778 246.229 111.892 246.857 115.45 246.857C118.637 246.857 121.417 246.376 123.789 245.415C126.235 244.454 128.459 243.013 130.461 241.091L139.689 251.07C136.947 254.175 133.5 256.577 129.349 258.278C125.197 259.904 120.416 260.717 115.005 260.717ZM163.024 282.228C159.911 282.228 156.835 281.747 153.795 280.787C150.756 279.826 148.273 278.495 146.345 276.795L152.683 264.487C154.017 265.669 155.537 266.594 157.242 267.259C159.021 267.924 160.763 268.257 162.468 268.257C164.914 268.257 166.842 267.665 168.25 266.483C169.733 265.374 171.067 263.489 172.253 260.828L175.366 253.51L176.701 251.625L198.16 200.175H214.839L187.82 263.489C185.892 268.294 183.668 272.064 181.148 274.799C178.702 277.534 175.96 279.456 172.92 280.565C169.955 281.674 166.656 282.228 163.024 282.228ZM173.254 262.158L146.568 200.175H164.469L185.151 250.072L173.254 262.158Z" fill="#3DB98B"/>
</g>
<defs>
<clipPath id="clip0_1646_823">
<rect width="429" height="283" fill="white"/>
</clipPath>
</defs>
</svg>
